{
    "asset" : {
        "generator" : "Khronos glTF Blender I/O v1.4.40",
        "version" : "2.0"
    },
    "scene" : 0,
    "scenes" : [
        {
            "name" : "Scene",
            "nodes" : [
                0,
                1,
                2,
                3,
                4
            ]
        }
    ],
    "nodes" : [
        {
            "mesh" : 0,
            "name" : "Cube",
            "translation" : [
                -1,
                1,
                0
            ]
        },
        {
            "mesh" : 1,
            "name" : "Cube.001",
            "translation" : [
                0.17519576847553253,
                3.6806082725524902,
                0
            ]
        },
        {
            "mesh" : 2,
            "name" : "Plane",
            "translation" : [
                1.367095708847046,
                3.696491003036499,
                0
            ]
        },
        {
            "mesh" : 3,
            "name" : "Cube.002",
            "translation" : [
                1.4319474697113037,
                5.820718288421631,
                5.2068095207214355
            ]
        },
        {
            "mesh" : 4,
            "name" : "NurbsPath",
            "translation" : [
                0.4319474697113037,
                5.820718288421631,
                5.2068095207214355
            ]
        }
    ],
    "meshes" : [
        {
            "name" : "Cube",
            "primitives" : [
                {
                    "attributes" : {
                        "POSITION" : 0,
                        "NORMAL" : 1,
                        "TEXCOORD_0" : 2
                    },
                    "indices" : 3
                }
            ]
        },
        {
            "name" : "Cube.001",
            "primitives" : [
                {
                    "attributes" : {
                        "POSITION" : 4,
                        "NORMAL" : 5,
                        "TEXCOORD_0" : 6
                    },
                    "indices" : 7
                }
            ]
        },
        {
            "name" : "Plane",
            "primitives" : [
                {
                    "attributes" : {
                        "POSITION" : 8,
                        "NORMAL" : 9,
                        "TEXCOORD_0" : 10
                    },
                    "indices" : 11
                }
            ]
        },
        {
            "name" : "Cube.002",
            "primitives" : [
                {
                    "attributes" : {
                        "POSITION" : 12,
                        "NORMAL" : 13,
                        "TEXCOORD_0" : 14
                    },
                    "indices" : 15
                }
            ]
        },
        {
            "name" : "NurbsPath",
            "primitives" : [
                {
                    "attributes" : {
                        "POSITION" : 16,
                        "NORMAL" : 17,
                        "TEXCOORD_0" : 18
                    },
                    "indices" : 19
                }
            ]
        }
    ],
    "accessors" : [
        {
            "bufferView" : 0,
            "componentType" : 5126,
            "count" : 623,
            "max" : [
                1.3680408000946045,
                8.961153030395508,
                6.054874420166016
            ],
            "min" : [
                -9.182083129882812,
                -1,
                -6.054874420166016
            ],
            "type" : "VEC3"
        },
        {
            "bufferView" : 1,
            "componentType" : 5126,
            "count" : 623,
            "type" : "VEC3"
        },
        {
            "bufferView" : 2,
            "componentType" : 5126,
            "count" : 623,
            "type" : "VEC2"
        },
        {
            "bufferView" : 3,
            "componentType" : 5123,
            "count" : 1134,
            "type" : "SCALAR"
        },
        {
            "bufferView" : 4,
            "componentType" : 5126,
            "count" : 112,
            "max" : [
                2.361924648284912,
                0.3021973967552185,
                4.612930774688721
            ],
            "min" : [
                0.06526362895965576,
                -0.7758960127830505,
                -4.612930774688721
            ],
            "type" : "VEC3"
        },
        {
            "bufferView" : 5,
            "componentType" : 5126,
            "count" : 112,
            "type" : "VEC3"
        },
        {
            "bufferView" : 6,
            "componentType" : 5126,
            "count" : 112,
            "type" : "VEC2"
        },
        {
            "bufferView" : 7,
            "componentType" : 5123,
            "count" : 336,
            "type" : "SCALAR"
        },
        {
            "bufferView" : 8,
            "componentType" : 5126,
            "count" : 6784,
            "max" : [
                1.1425549983978271,
                0.2749204933643341,
                4.690661907196045
            ],
            "min" : [
                -1.0297285318374634,
                -0.7976269721984863,
                -4.690662384033203
            ],
            "type" : "VEC3"
        },
        {
            "bufferView" : 9,
            "componentType" : 5126,
            "count" : 6784,
            "type" : "VEC3"
        },
        {
            "bufferView" : 10,
            "componentType" : 5126,
            "count" : 6784,
            "type" : "VEC2"
        },
        {
            "bufferView" : 11,
            "componentType" : 5123,
            "count" : 10176,
            "type" : "SCALAR"
        },
        {
            "bufferView" : 12,
            "componentType" : 5126,
            "count" : 1520,
            "max" : [
                1.4377646446228027,
                1,
                0.20818011462688446
            ],
            "min" : [
                -1,
                -1,
                -0.20818011462688446
            ],
            "type" : "VEC3"
        },
        {
            "bufferView" : 13,
            "componentType" : 5126,
            "count" : 1520,
            "type" : "VEC3"
        },
        {
            "bufferView" : 14,
            "componentType" : 5126,
            "count" : 1520,
            "type" : "VEC2"
        },
        {
            "bufferView" : 15,
            "componentType" : 5123,
            "count" : 7212,
            "type" : "SCALAR"
        },
        {
            "bufferView" : 16,
            "componentType" : 5126,
            "count" : 312,
            "max" : [
                0.05202139914035797,
                0.3714190125465393,
                0.07500001043081284
            ],
            "min" : [
                -0.4490501284599304,
                -0.3714190125465393,
                -0.07500001043081284
            ],
            "type" : "VEC3"
        },
        {
            "bufferView" : 17,
            "componentType" : 5126,
            "count" : 312,
            "type" : "VEC3"
        },
        {
            "bufferView" : 18,
            "componentType" : 5126,
            "count" : 312,
            "type" : "VEC2"
        },
        {
            "bufferView" : 19,
            "componentType" : 5123,
            "count" : 1584,
            "type" : "SCALAR"
        }
    ],
    "bufferViews" : [
        {
            "buffer" : 0,
            "byteLength" : 7476,
            "byteOffset" : 0
        },
        {
            "buffer" : 0,
            "byteLength" : 7476,
            "byteOffset" : 7476
        },
        {
            "buffer" : 0,
            "byteLength" : 4984,
            "byteOffset" : 14952
        },
        {
            "buffer" : 0,
            "byteLength" : 2268,
            "byteOffset" : 19936
        },
        {
            "buffer" : 0,
            "byteLength" : 1344,
            "byteOffset" : 22204
        },
        {
            "buffer" : 0,
            "byteLength" : 1344,
            "byteOffset" : 23548
        },
        {
            "buffer" : 0,
            "byteLength" : 896,
            "byteOffset" : 24892
        },
        {
            "buffer" : 0,
            "byteLength" : 672,
            "byteOffset" : 25788
        },
        {
            "buffer" : 0,
            "byteLength" : 81408,
            "byteOffset" : 26460
        },
        {
            "buffer" : 0,
            "byteLength" : 81408,
            "byteOffset" : 107868
        },
        {
            "buffer" : 0,
            "byteLength" : 54272,
            "byteOffset" : 189276
        },
        {
            "buffer" : 0,
            "byteLength" : 20352,
            "byteOffset" : 243548
        },
        {
            "buffer" : 0,
            "byteLength" : 18240,
            "byteOffset" : 263900
        },
        {
            "buffer" : 0,
            "byteLength" : 18240,
            "byteOffset" : 282140
        },
        {
            "buffer" : 0,
            "byteLength" : 12160,
            "byteOffset" : 300380
        },
        {
            "buffer" : 0,
            "byteLength" : 14424,
            "byteOffset" : 312540
        },
        {
            "buffer" : 0,
            "byteLength" : 3744,
            "byteOffset" : 326964
        },
        {
            "buffer" : 0,
            "byteLength" : 3744,
            "byteOffset" : 330708
        },
        {
            "buffer" : 0,
            "byteLength" : 2496,
            "byteOffset" : 334452
        },
        {
            "buffer" : 0,
            "byteLength" : 3168,
            "byteOffset" : 336948
        }
    ],
    "buffers" : [
        {
            "byteLength" : 340116,
            "uri" : "data:application/octet-stream;base64,"
        }
    ]
}
